<svg xmlns="http://www.w3.org/2000/svg" viewBox="0 0 66.5 46.5"><defs><style>.cls-1{fill:#fff;}</style></defs><title>Ativo 4</title><g id="Camada_2" data-name="Camada 2"><g id="Camada_1-2" data-name="Camada 1"><path class="cls-1" d="M61.5,0H4.9A4.9,4.9,0,0,0,0,4.9V34.2a5,5,0,0,0,4.9,5H22.8l-3.2,3.6a2.2,2.2,0,0,0,1.7,3.7H45.2a2.2,2.2,0,0,0,1.7-3.7l-3.2-3.6H61.5a5,5,0,0,0,5-5V4.9A4.9,4.9,0,0,0,61.5,0Zm1,34.2a1,1,0,0,1-1,1H4.9a1,1,0,0,1-.9-1V4.9A.9.9,0,0,1,4.9,4H61.5a.9.9,0,0,1,1,.9Z"/></g></g></svg>