<svg xmlns="http://www.w3.org/2000/svg" viewBox="0 0 21.6 36.4"><defs><style>.cls-1{fill:#fff;}</style></defs><title>Mobile_1</title><g id="Camada_2" data-name="Camada 2"><g id="Camada_1-2" data-name="Camada 1"><path class="cls-1" d="M16.7,0H4.9A4.9,4.9,0,0,0,0,4.9V31.5a4.9,4.9,0,0,0,4.9,4.9H16.7a4.9,4.9,0,0,0,4.9-4.9V4.9A4.9,4.9,0,0,0,16.7,0Zm2.4,31.5a2.4,2.4,0,0,1-2.4,2.4H4.9a2.4,2.4,0,0,1-2.4-2.4V4.9A2.4,2.4,0,0,1,4.9,2.5H6.8c2.4.1,2.9.9,2.9.9h0a1.3,1.3,0,0,0,1.1.5,1.4,1.4,0,0,0,1.1-.5h0s.4-.8,2.9-.9h1.9a2.4,2.4,0,0,1,2.4,2.4Z"/><path class="cls-1" d="M16.7,30.8H4.9a.8.8,0,0,0-.8.7.8.8,0,0,0,.8.8H16.7a.7.7,0,0,0,.7-.8A.7.7,0,0,0,16.7,30.8Z"/></g></g></svg>